<mxfile host="app.diagrams.net" modified="2023-08-09T00:56:41.485Z" agent="Mozilla/5.0 (Windows NT 10.0; Win64; x64) AppleWebKit/537.36 (KHTML, like Gecko) Chrome/114.0.0.0 Whale/3.21.192.18 Safari/537.36" etag="wDrrl7FZacfyeoFkzFdT" version="21.6.7" type="github">
  <diagram name="페이지-1" id="7c_d_tjCZMxHoC3NEscL">
    <mxGraphModel dx="1157" dy="638" grid="1" gridSize="10" guides="1" tooltips="1" connect="1" arrows="1" fold="1" page="1" pageScale="1" pageWidth="827" pageHeight="1169" math="0" shadow="0">
      <root>
        <mxCell id="0" />
        <mxCell id="1" parent="0" />
        <mxCell id="85y99t0YfQ0S5foXdJk_-1" value="" style="shape=table;startSize=0;container=1;collapsible=0;childLayout=tableLayout;fontSize=16;" vertex="1" parent="1">
          <mxGeometry x="320" y="200" width="240" height="170" as="geometry" />
        </mxCell>
        <mxCell id="85y99t0YfQ0S5foXdJk_-2" value="" style="shape=tableRow;horizontal=0;startSize=0;swimlaneHead=0;swimlaneBody=0;strokeColor=inherit;top=0;left=0;bottom=0;right=0;collapsible=0;dropTarget=0;fillColor=none;points=[[0,0.5],[1,0.5]];portConstraint=eastwest;fontSize=16;" vertex="1" parent="85y99t0YfQ0S5foXdJk_-1">
          <mxGeometry width="240" height="57" as="geometry" />
        </mxCell>
        <mxCell id="85y99t0YfQ0S5foXdJk_-3" value="" style="shape=partialRectangle;html=1;whiteSpace=wrap;connectable=0;strokeColor=inherit;overflow=hidden;fillColor=none;top=0;left=0;bottom=0;right=0;pointerEvents=1;fontSize=16;" vertex="1" parent="85y99t0YfQ0S5foXdJk_-2">
          <mxGeometry width="80" height="57" as="geometry">
            <mxRectangle width="80" height="57" as="alternateBounds" />
          </mxGeometry>
        </mxCell>
        <mxCell id="85y99t0YfQ0S5foXdJk_-4" value="검색" style="shape=partialRectangle;html=1;whiteSpace=wrap;connectable=0;strokeColor=inherit;overflow=hidden;fillColor=none;top=0;left=0;bottom=0;right=0;pointerEvents=1;fontSize=16;" vertex="1" parent="85y99t0YfQ0S5foXdJk_-2">
          <mxGeometry x="80" width="80" height="57" as="geometry">
            <mxRectangle width="80" height="57" as="alternateBounds" />
          </mxGeometry>
        </mxCell>
        <mxCell id="85y99t0YfQ0S5foXdJk_-5" value="&lt;font style=&quot;font-size: 15px;&quot;&gt;마이페이지&lt;/font&gt;" style="shape=partialRectangle;html=1;whiteSpace=wrap;connectable=0;strokeColor=inherit;overflow=hidden;fillColor=none;top=0;left=0;bottom=0;right=0;pointerEvents=1;fontSize=16;" vertex="1" parent="85y99t0YfQ0S5foXdJk_-2">
          <mxGeometry x="160" width="80" height="57" as="geometry">
            <mxRectangle width="80" height="57" as="alternateBounds" />
          </mxGeometry>
        </mxCell>
        <mxCell id="85y99t0YfQ0S5foXdJk_-6" value="" style="shape=tableRow;horizontal=0;startSize=0;swimlaneHead=0;swimlaneBody=0;strokeColor=inherit;top=0;left=0;bottom=0;right=0;collapsible=0;dropTarget=0;fillColor=none;points=[[0,0.5],[1,0.5]];portConstraint=eastwest;fontSize=16;" vertex="1" parent="85y99t0YfQ0S5foXdJk_-1">
          <mxGeometry y="57" width="240" height="56" as="geometry" />
        </mxCell>
        <mxCell id="85y99t0YfQ0S5foXdJk_-7" value="" style="shape=partialRectangle;html=1;whiteSpace=wrap;connectable=0;strokeColor=inherit;overflow=hidden;fillColor=none;top=0;left=0;bottom=0;right=0;pointerEvents=1;fontSize=16;" vertex="1" parent="85y99t0YfQ0S5foXdJk_-6">
          <mxGeometry width="80" height="56" as="geometry">
            <mxRectangle width="80" height="56" as="alternateBounds" />
          </mxGeometry>
        </mxCell>
        <mxCell id="85y99t0YfQ0S5foXdJk_-8" value="&lt;font style=&quot;font-size: 15px;&quot;&gt;메인페이지&lt;/font&gt;" style="shape=partialRectangle;html=1;whiteSpace=wrap;connectable=0;strokeColor=inherit;overflow=hidden;fillColor=none;top=0;left=0;bottom=0;right=0;pointerEvents=1;fontSize=16;" vertex="1" parent="85y99t0YfQ0S5foXdJk_-6">
          <mxGeometry x="80" width="80" height="56" as="geometry">
            <mxRectangle width="80" height="56" as="alternateBounds" />
          </mxGeometry>
        </mxCell>
        <mxCell id="85y99t0YfQ0S5foXdJk_-9" value="로그인" style="shape=partialRectangle;html=1;whiteSpace=wrap;connectable=0;strokeColor=inherit;overflow=hidden;fillColor=none;top=0;left=0;bottom=0;right=0;pointerEvents=1;fontSize=16;" vertex="1" parent="85y99t0YfQ0S5foXdJk_-6">
          <mxGeometry x="160" width="80" height="56" as="geometry">
            <mxRectangle width="80" height="56" as="alternateBounds" />
          </mxGeometry>
        </mxCell>
        <mxCell id="85y99t0YfQ0S5foXdJk_-10" value="" style="shape=tableRow;horizontal=0;startSize=0;swimlaneHead=0;swimlaneBody=0;strokeColor=inherit;top=0;left=0;bottom=0;right=0;collapsible=0;dropTarget=0;fillColor=none;points=[[0,0.5],[1,0.5]];portConstraint=eastwest;fontSize=16;" vertex="1" parent="85y99t0YfQ0S5foXdJk_-1">
          <mxGeometry y="113" width="240" height="57" as="geometry" />
        </mxCell>
        <mxCell id="85y99t0YfQ0S5foXdJk_-11" value="" style="shape=partialRectangle;html=1;whiteSpace=wrap;connectable=0;strokeColor=inherit;overflow=hidden;fillColor=none;top=0;left=0;bottom=0;right=0;pointerEvents=1;fontSize=16;" vertex="1" parent="85y99t0YfQ0S5foXdJk_-10">
          <mxGeometry width="80" height="57" as="geometry">
            <mxRectangle width="80" height="57" as="alternateBounds" />
          </mxGeometry>
        </mxCell>
        <mxCell id="85y99t0YfQ0S5foXdJk_-12" value="스타일" style="shape=partialRectangle;html=1;whiteSpace=wrap;connectable=0;strokeColor=inherit;overflow=hidden;fillColor=none;top=0;left=0;bottom=0;right=0;pointerEvents=1;fontSize=16;" vertex="1" parent="85y99t0YfQ0S5foXdJk_-10">
          <mxGeometry x="80" width="80" height="57" as="geometry">
            <mxRectangle width="80" height="57" as="alternateBounds" />
          </mxGeometry>
        </mxCell>
        <mxCell id="85y99t0YfQ0S5foXdJk_-13" value="알림" style="shape=partialRectangle;html=1;whiteSpace=wrap;connectable=0;strokeColor=inherit;overflow=hidden;fillColor=none;top=0;left=0;bottom=0;right=0;pointerEvents=1;fontSize=16;" vertex="1" parent="85y99t0YfQ0S5foXdJk_-10">
          <mxGeometry x="160" width="80" height="57" as="geometry">
            <mxRectangle width="80" height="57" as="alternateBounds" />
          </mxGeometry>
        </mxCell>
      </root>
    </mxGraphModel>
  </diagram>
</mxfile>
